<svg id="line" height="512" viewBox="0 0 64 64" width="512" xmlns="http://www.w3.org/2000/svg"><path d="m61.5 19h-12.25a28.8 28.8 0 0 0 -23.35 11.98 29.38 29.38 0 0 0 -5.4 18.31c-2.119.83-8 3.924-8 12.71a1 1 0 0 0 2 0c0-8.6 6.253-10.74 7.138-11h12.112a28.786 28.786 0 0 0 28.75-28.75v-2.25a1 1 0 0 0 -1-1zm-16.78 14.98c-6.84 1.52-16.94 11.1-20.86 15.02h-1.36v-1.47c4.08-4.1 14.4-13.86 21.78-15.51a1 1 0 0 1 .44 1.96z" fill="#c4a2fc"/><path d="m43.218 17.6a25.912 25.912 0 0 0 -14.718-4.6h-9a1 1 0 0 0 -1 1 25.834 25.834 0 0 0 5.585 16.1 30.811 30.811 0 0 1 19.133-12.5z" fill="#c4a2fc"/><path d="m29.936 31.965a18.011 18.011 0 0 0 17.564-17.978 1 1 0 0 0 -1-1 18.01 18.01 0 0 0 -17.978 17.564l-3.022 3.022v-10.205c6.694-7.23 6.612-14.854-.276-22.071a1.031 1.031 0 0 0 -1.448 0c-6.888 7.217-6.971 14.841-.276 22.071v10.205l-3.022-3.022a18.01 18.01 0 0 0 -17.978-17.564 1 1 0 0 0 -1 1 18.01 18.01 0 0 0 17.564 17.978l4.436 4.435v4.586h-3a9.011 9.011 0 0 0 -9 9 1 1 0 0 0 1 1h24a1 1 0 0 0 1-1 9.01 9.01 0 0 0 -9-9h-3v-4.586zm15.531-16.945a16.023 16.023 0 0 1 -14.934 14.934 16.023 16.023 0 0 1 14.934-14.934zm-41.934 0a16.023 16.023 0 0 1 14.934 14.934 16.023 16.023 0 0 1 -14.934-14.934zm24.967 27.967a7.011 7.011 0 0 1 6.929 6h-21.858a7.011 7.011 0 0 1 6.929-6zm-4-21.479c-5.335-6.062-5.335-11.98 0-18.042 5.335 6.062 5.335 11.98 0 18.042z" fill="#151a6a"/></svg>