<?xml version="1.0"?>
<svg xmlns="http://www.w3.org/2000/svg" xmlns:xlink="http://www.w3.org/1999/xlink" id="Gradient" viewBox="0 0 512 512" width="512" height="512"><defs><linearGradient id="linear-gradient" x1="256" y1="448" x2="256" y2="64" gradientUnits="userSpaceOnUse"><stop offset="0" stop-color="#12c0e7"/><stop offset="0.5" stop-color="#c271eb"/><stop offset="1" stop-color="#f44f5a"/></linearGradient></defs><path d="M488,400H368V383.036c57.668-19.219,96-66.414,96-119.036a8,8,0,0,0-8-8H430.879c-3.669-13.011-16.315-24.63-36.532-33.294S347.981,208.951,320,208.131v-16.9a59.566,59.566,0,0,0,15.383-4.646c11.23-5.241,24.617-16.42,24.617-39.916,0-40.346-40.805-78.894-42.541-80.516a8,8,0,0,0-10.918,0C304.805,67.773,264,106.321,264,146.667c0,23.5,13.387,34.675,24.617,39.916A59.566,59.566,0,0,0,304,191.229v16.9c-27.981.82-54.136,5.913-74.347,14.575-19.52,8.366-31.983,19.485-36.122,31.953a44.694,44.694,0,0,0-.633-5.282,8,8,0,0,0-6.275-6.275,67.831,67.831,0,0,0-38.733,5.521,68.019,68.019,0,0,0-23.452-31.279,8,8,0,0,0-8.876,0,68.043,68.043,0,0,0-23.455,31.277,67.82,67.82,0,0,0-38.73-5.519,8,8,0,0,0-6.275,6.275,67.465,67.465,0,0,0,3.551,34.014,67.994,67.994,0,0,0-33.309,24.171,8,8,0,0,0,0,8.876,68.047,68.047,0,0,0,36.419,25.111A67.888,67.888,0,0,0,47.1,382.623a8,8,0,0,0,6.275,6.275,53.634,53.634,0,0,0,9.787.788,69.192,69.192,0,0,0,28.946-6.308A68.092,68.092,0,0,0,101.021,400H24a8,8,0,0,0-8,8,40.045,40.045,0,0,0,40,40H456a40.045,40.045,0,0,0,40-40A8,8,0,0,0,488,400ZM357.739,369.488A8,8,0,0,0,352,377.162V400H272V384h56a8,8,0,0,0,0-16H261.521c-22.107-7.309-41.738-19.469-56.52-34.937a65.24,65.24,0,0,0,17.655-16.625,8,8,0,0,0,0-8.876A68.068,68.068,0,0,0,189.343,283.4,68.165,68.165,0,0,0,192.5,272H447.651C443.816,315.927,408.656,354.489,357.739,369.488ZM139.8,358.426A51.376,51.376,0,0,1,129,342.7a32.146,32.146,0,0,0,19.785-16.741A52.326,52.326,0,0,1,177.71,373.7,51.883,51.883,0,0,1,139.8,358.426ZM120,296a16,16,0,1,1-16,16A16.019,16.019,0,0,1,120,296Zm53.74,28.485A68.825,68.825,0,0,0,163.407,316a69.378,69.378,0,0,0,18.411-18.157,53.383,53.383,0,0,1,23.753,14.185,52.255,52.255,0,0,1-29.156,15.3C175.561,326.372,174.678,325.424,173.74,324.485ZM294.984,171.9C284.9,167.033,280,158.781,280,146.667c0-25.468,21.613-51.955,32.008-63.219A172.223,172.223,0,0,1,325.49,99.983C333.935,111.805,344,129.5,344,146.667c0,12.114-4.9,20.366-14.984,25.228A41.474,41.474,0,0,1,320,174.95V160a8,8,0,0,0-16,0v14.949A41.4,41.4,0,0,1,294.984,171.9ZM312,224c52.719,0,91.69,15.6,101.559,32H210.441C220.31,239.6,259.281,224,312,224ZM177.7,258.29a52.358,52.358,0,0,1-26.528,46.492,32.123,32.123,0,0,0-18.592-22.2,52.573,52.573,0,0,1,7.223-9.006A51.851,51.851,0,0,1,177.7,258.29Zm-71.514-1.353A53.3,53.3,0,0,1,120,234.454a53.416,53.416,0,0,1,13.934,22.91,70.285,70.285,0,0,0-5.446,4.9A68.859,68.859,0,0,0,120,272.575a68.868,68.868,0,0,0-8.483-10.315,70.612,70.612,0,0,0-5.451-4.9C106.105,257.22,106.14,257.077,106.183,256.937ZM62.29,258.3a51.936,51.936,0,0,1,37.91,15.27,52.7,52.7,0,0,1,7.235,9,32.121,32.121,0,0,0-18.6,22.207A52.383,52.383,0,0,1,62.29,258.3ZM34.425,312.036a53.377,53.377,0,0,1,23.751-14.2A69.356,69.356,0,0,0,76.593,316a68.825,68.825,0,0,0-10.333,8.485c-.941.941-1.825,1.892-2.682,2.848A52.1,52.1,0,0,1,34.425,312.036ZM62.3,373.71a52.3,52.3,0,0,1,28.909-47.749,32.146,32.146,0,0,0,19.8,16.746,52.294,52.294,0,0,1-48.712,31Zm49.212-3.97A68.916,68.916,0,0,0,120,359.45a69.05,69.05,0,0,0,8.489,10.29,70.517,70.517,0,0,0,5.45,4.907,53.462,53.462,0,0,1-13.964,22.925,52.707,52.707,0,0,1-13.91-22.922A70.589,70.589,0,0,0,111.515,369.74Zm36.375,13.638a69.189,69.189,0,0,0,28.946,6.308,53.646,53.646,0,0,0,9.787-.788,8,8,0,0,0,6.275-6.275,67.885,67.885,0,0,0-6.662-41.077c1.293-.358,2.559-.741,3.783-1.16C206.853,359.393,229.9,374.308,256,383.032V400H138.979A68.092,68.092,0,0,0,147.89,383.378ZM456,432H56a24.042,24.042,0,0,1-22.629-16H478.629A24.042,24.042,0,0,1,456,432Z" style="fill:url(#linear-gradient)"/></svg>
