<svg height="512" viewBox="0 0 64 64" width="512" xmlns="http://www.w3.org/2000/svg"><g id="flat"><path d="m15 27h34v14h-34z" fill="#d3843d"/><path d="m17 41h30a0 0 0 0 1 0 0v3a7 7 0 0 1 -7 7h-16a7 7 0 0 1 -7-7v-3a0 0 0 0 1 0 0z" fill="#ad6327"/><path d="m17 57h30v4h-30z" fill="#995f5b"/><path d="m49.558 57h-35.116a2 2 0 0 1 -1.9-1.368l-1.542-4.632h42l-1.544 4.632a2 2 0 0 1 -1.898 1.368z" fill="#66342e"/><g fill="#7fcac9"><path d="m32 17h-2a4.791 4.791 0 0 1 1.2-3.1 2.858 2.858 0 0 0 .8-1.9 2.858 2.858 0 0 0 -.8-1.9 4.791 4.791 0 0 1 -1.2-3.1 4.787 4.787 0 0 1 1.2-3.1 2.869 2.869 0 0 0 .8-1.9h2a4.787 4.787 0 0 1 -1.2 3.1 2.869 2.869 0 0 0 -.8 1.9 2.858 2.858 0 0 0 .8 1.9 4.791 4.791 0 0 1 1.2 3.1 4.791 4.791 0 0 1 -1.2 3.1 2.858 2.858 0 0 0 -.8 1.9z"/><path d="m26 20h-2a4.791 4.791 0 0 1 1.2-3.1 2.858 2.858 0 0 0 .8-1.9 2.858 2.858 0 0 0 -.8-1.9 4.791 4.791 0 0 1 -1.2-3.1 4.787 4.787 0 0 1 1.2-3.1 2.869 2.869 0 0 0 .8-1.9h2a4.787 4.787 0 0 1 -1.2 3.1 2.869 2.869 0 0 0 -.8 1.9 2.858 2.858 0 0 0 .8 1.9 4.607 4.607 0 0 1 0 6.2 2.858 2.858 0 0 0 -.8 1.9z"/><path d="m38 21h-2a4.791 4.791 0 0 1 1.2-3.1 2.858 2.858 0 0 0 .8-1.9 2.858 2.858 0 0 0 -.8-1.9 4.791 4.791 0 0 1 -1.2-3.1 4.787 4.787 0 0 1 1.2-3.1 2.869 2.869 0 0 0 .8-1.9h2a4.787 4.787 0 0 1 -1.2 3.1 2.869 2.869 0 0 0 -.8 1.9 2.858 2.858 0 0 0 .8 1.9 4.607 4.607 0 0 1 0 6.2 2.858 2.858 0 0 0 -.8 1.9z"/></g><path d="m41 48h-1v-2h1a1 1 0 0 0 1-1v-1h2v1a3 3 0 0 1 -3 3z" fill="#f4f4e6"/><path d="m49 27h6a4 4 0 0 1 4 4v6a4 4 0 0 1 -4 4h-6v-4h5a1 1 0 0 0 1-1v-4a1 1 0 0 0 -1-1h-5z" fill="#ad6327"/><path d="m43 30h2v2h-2z" fill="#f4f4e6"/><path d="m43 34h2v4h-2z" fill="#f4f4e6"/><path d="m36 46h2v2h-2z" fill="#f4f4e6"/></g></svg>